HIERARCHY
ROOT hip
{
  OFFSET 0 0 0
  CHANNELS 6 Xposition Yposition Zposition Zrotation Yrotation Xrotation
  JOINT abdomen
  {
    OFFSET 0 20.6881 -0.73152
    CHANNELS 3 Zrotation Xrotation Yrotation
    JOINT chest
    {
      OFFSET 0 11.7043 -0.48768
      CHANNELS 3 Zrotation Xrotation Yrotation
      JOINT neck
      {
        OFFSET 0 22.1894 -2.19456
        CHANNELS 3 Zrotation Xrotation Yrotation
        JOINT head
        {
          OFFSET -0.24384 7.07133 1.2192
          CHANNELS 3 Zrotation Xrotation Yrotation
          JOINT leftEye
          {
            OFFSET 4.14528 8.04674 8.04672
            CHANNELS 3 Zrotation Xrotation Yrotation
            End Site
            {
              OFFSET 1 0 0
            }
          }
          JOINT rightEye
          {
            OFFSET -3.6576 8.04674 8.04672
            CHANNELS 3 Zrotation Xrotation Yrotation
            End Site
            {
              OFFSET 1 0 0
            }
          }
        }
      }
      JOINT rCollar
      {
        OFFSET -2.68224 19.2634 -4.8768
        CHANNELS 3 Zrotation Xrotation Yrotation
        JOINT rShldr
        {
          OFFSET -8.77824 -1.95073 1.46304
          CHANNELS 3 Zrotation Xrotation Yrotation
          JOINT rForeArm
          {
            OFFSET -28.1742 -1.7115 0.48768
            CHANNELS 3 Zrotation Xrotation Yrotation
            JOINT rHand
            {
              OFFSET -22.5879 0.773209 7.07136
              CHANNELS 3 Zrotation Xrotation Yrotation
              JOINT rThumb1
              {
                OFFSET -1.2192 -0.487915 3.41376
                CHANNELS 3 Zrotation Xrotation Yrotation
                JOINT rThumb2
                {
                  OFFSET -3.37035 -0.52449 3.41376
                  CHANNELS 3 Zrotation Xrotation Yrotation
                  End Site
                  {
                    OFFSET -1.78271 -1.18214 1.43049
                  }
                }
              }
              JOINT rIndex1
              {
                OFFSET -7.75947 0.938293 5.60832
                CHANNELS 3 Zrotation Xrotation Yrotation
                JOINT rIndex2
                {
                  OFFSET -2.54057 -0.884171 1.56538
                  CHANNELS 3 Zrotation Xrotation Yrotation
                  End Site
                  {
                    OFFSET -1.62519 -0.234802 1.16502
                  }
                }
              }
              JOINT rMid1
              {
                OFFSET -8.24714 1.18213 3.41376
                CHANNELS 3 Zrotation Xrotation Yrotation
                JOINT rMid2
                {
                  OFFSET -3.10165 -0.590103 1.0647
                  CHANNELS 3 Zrotation Xrotation Yrotation
                  End Site
                  {
                    OFFSET -2.48547 -0.328903 0.83742
                  }
                }
              }
              JOINT rRing1
              {
                OFFSET -8.82822 0.546677 1.51678
                CHANNELS 3 Zrotation Xrotation Yrotation
                JOINT rRing2
                {
                  OFFSET -2.60934 -0.819778 -0.0198488
                  CHANNELS 3 Zrotation Xrotation Yrotation
                  End Site
                  {
                    OFFSET -2.33842 -0.294052 0.168128
                  }
                }
              }
              JOINT rPinky1
              {
                OFFSET -8.27202 -0.0477905 -0.4584
                CHANNELS 3 Zrotation Xrotation Yrotation
                JOINT rPinky2
                {
                  OFFSET -1.82734 -0.647385 -0.700984
                  CHANNELS 3 Zrotation Xrotation Yrotation
                  End Site
                  {
                    OFFSET -1.69225 -0.51767 -0.607171
                  }
                }
              }
            }
          }
        }
      }
      JOINT lCollar
      {
        OFFSET 2.68224 19.2634 -4.8768
        CHANNELS 3 Zrotation Xrotation Yrotation
        JOINT lShldr
        {
          OFFSET 8.77824 -1.95073 1.46304
          CHANNELS 3 Zrotation Xrotation Yrotation
          JOINT lForeArm
          {
            OFFSET 28.1742 -1.7115 0.48768
            CHANNELS 3 Zrotation Xrotation Yrotation
            JOINT lHand
            {
              OFFSET 22.5879 0.773209 7.07136
              CHANNELS 3 Zrotation Xrotation Yrotation
              JOINT lThumb1
              {
                OFFSET 1.2192 -0.487915 3.41376
                CHANNELS 3 Zrotation Xrotation Yrotation
                JOINT lThumb2
                {
                  OFFSET 3.37035 -0.52449 3.41376
                  CHANNELS 3 Zrotation Xrotation Yrotation
                  End Site
                  {
                    OFFSET 1.78271 -1.18214 1.43049
                  }
                }
              }
              JOINT lIndex1
              {
                OFFSET 7.75947 0.938293 5.60832
                CHANNELS 3 Zrotation Xrotation Yrotation
                JOINT lIndex2
                {
                  OFFSET 2.54057 -0.884171 1.56538
                  CHANNELS 3 Zrotation Xrotation Yrotation
                  End Site
                  {
                    OFFSET 1.62519 -0.234802 1.16502
                  }
                }
              }
              JOINT lMid1
              {
                OFFSET 8.24714 1.18213 3.41376
                CHANNELS 3 Zrotation Xrotation Yrotation
                JOINT lMid2
                {
                  OFFSET 3.10165 -0.590103 1.0647
                  CHANNELS 3 Zrotation Xrotation Yrotation
                  End Site
                  {
                    OFFSET 2.48547 -0.328903 0.83742
                  }
                }
              }
              JOINT lRing1
              {
                OFFSET 8.82822 0.546677 1.51678
                CHANNELS 3 Zrotation Xrotation Yrotation
                JOINT lRing2
                {
                  OFFSET 2.60934 -0.819778 -0.0198488
                  CHANNELS 3 Zrotation Xrotation Yrotation
                  End Site
                  {
                    OFFSET 2.33842 -0.294052 0.168128
                  }
                }
              }
              JOINT lPinky1
              {
                OFFSET 8.27202 -0.0477905 -0.4584
                CHANNELS 3 Zrotation Xrotation Yrotation
                JOINT lPinky2
                {
                  OFFSET 1.82734 -0.647385 -0.700984
                  CHANNELS 3 Zrotation Xrotation Yrotation
                  End Site
                  {
                    OFFSET 1.69225 -0.51767 -0.607171
                  }
                }
              }
            }
          }
        }
      }
    }
  }
  JOINT rButtock
  {
    OFFSET -8.77824 4.35084 1.2192
    CHANNELS 3 Zrotation Xrotation Yrotation
    JOINT rThigh
    {
      OFFSET 0 -1.70687 -2.19456
      CHANNELS 3 Zrotation Xrotation Yrotation
      JOINT rShin
      {
        OFFSET 0 -36.8199 0.73152
        CHANNELS 3 Zrotation Xrotation Yrotation
        JOINT rFoot
        {
          OFFSET 0.73152 -45.1104 -5.12064
          CHANNELS 3 Zrotation Xrotation Yrotation
          End Site
          {
            OFFSET -1.1221 -3.69964 12.103
          }
        }
      }
    }
  }
  JOINT lButtock
  {
    OFFSET 8.77824 4.35084 1.2192
    CHANNELS 3 Zrotation Xrotation Yrotation
    JOINT lThigh
    {
      OFFSET 0 -1.70687 -2.19456
      CHANNELS 3 Zrotation Xrotation Yrotation
      JOINT lShin
      {
        OFFSET 0 -36.8199 0.73152
        CHANNELS 3 Zrotation Xrotation Yrotation
        JOINT lFoot
        {
          OFFSET -0.73152 -45.1104 -5.12064
          CHANNELS 3 Zrotation Xrotation Yrotation
          End Site
          {
            OFFSET 1.1221 -3.69964 12.103
          }
        }
      }
    }
  }
}
MOTION
Frames:	8
Frame Time:	0.00833333
57.8175 79.8442 -84.3253 1.8096 -3.5889 1.32 1.18041 7.47635 2.12496 0.000712938 -11.0734 0.71462 3.97213 8.74069 1.53928 -10.9082 -5.15945 2.01594 -0.0 0.0 0.0 -0.0 0.0 0.0 -4.03778e-15 6.75829e-15 -5.4964e-14 22.5863 10.3404 44.0718 -26.1269 -23.7646 57.2982 -0.918501 26.1399 3.95493 -5.62519e-10 -7.19962e-11 4.80741e-11 -9.72714e-10 -8.86707e-11 9.48195e-11 -5.62517e-10 -7.20006e-11 4.80677e-11 7.73091 5.47488 0.417314 -5.6252e-10 -7.20072e-11 4.80804e-11 2.90554 0.965183 0.102902 -5.62516e-10 -7.19962e-11 4.80757e-11 10.2786 0.731801 0.0259123 -5.62524e-10 -7.19938e-11 4.80804e-11 2.22167 -0.733487 -0.20892 -4.11266e-15 6.75868e-15 -5.5113e-14 -21.898 7.79367 -42.3348 25.651 -22.5701 -55.364 0.60394 21.5214 -3.17702 8.19079e-10 -8.6282e-10 1.46773e-10 1.41944e-09 -1.44957e-09 2.3962e-10 8.19079e-10 -8.62825e-10 1.46773e-10 -7.73091 5.47488 -0.417314 8.1908e-10 -8.62819e-10 1.46776e-10 -2.90554 0.965183 -0.102902 8.19079e-10 -8.62819e-10 1.46767e-10 -10.2786 0.731801 -0.0259123 8.19089e-10 -8.62814e-10 1.46757e-10 -2.22167 -0.733487 0.20892 -2.03217e-16 0.0 -3.88251e-19 -2.75265 -31.8346 -2.98767 -0.748229 55.7517 1.5196 -9.24793 -20.1036 -18.111 2.03217e-16 0.0 3.88251e-19 5.07058 -30.5271 3.10745 0.681764 51.7487 -1.02643 -1.33281 -23.4658 -3.63056
57.8117 79.8538 -84.3257 1.7669 -3.571 1.2922 1.16188 7.49568 2.10673 0.00117449 -11.117 0.708279 3.97771 8.80215 1.54492 -10.8633 -5.23141 2.02569 -0.0 0.0 0.0 -0.0 0.0 0.0 -2.85781e-15 1.05571e-14 -8.22087e-14 22.6228 10.3832 44.0461 -26.1241 -23.7571 57.2855 -0.917725 26.1298 3.95316 -6.32042e-10 -1.8237e-10 4.01122e-11 -1.09286e-09 -2.74732e-10 8.26968e-11 -6.3204e-10 -1.82371e-10 4.01075e-11 7.73091 5.47488 0.417314 -6.32043e-10 -1.82377e-10 4.01195e-11 2.90554 0.965183 0.102902 -6.32038e-10 -1.8237e-10 4.01142e-11 10.2786 0.731801 0.0259123 -6.32046e-10 -1.82368e-10 4.01186e-11 2.22167 -0.733487 -0.20892 -2.93432e-15 1.0557e-14 -8.2333e-14 -21.8921 7.8605 -42.2829 25.653 -22.5748 -55.3717 0.602097 21.4897 -3.17189 7.44031e-10 -1.36186e-09 3.09672e-10 1.29243e-09 -2.31716e-09 5.22212e-10 7.4403e-10 -1.36186e-09 3.0967e-10 -7.73091 5.47488 -0.417314 7.44032e-10 -1.36186e-09 3.09672e-10 -2.90554 0.965183 -0.102902 7.44031e-10 -1.36186e-09 3.09664e-10 -10.2786 0.731801 -0.0259123 7.44042e-10 -1.36185e-09 3.09651e-10 -2.22167 -0.733487 0.20892 -2.03217e-16 0.0 -3.88251e-19 -2.79888 -31.7946 -3.02946 -0.746913 55.7238 1.5182 -9.24139 -20.1088 -18.0958 2.03217e-16 0.0 3.88251e-19 5.02531 -30.5035 3.06762 0.680306 51.7158 -1.02462 -1.33733 -23.4167 -3.64572
57.807 79.8623 -84.3261 1.7235 -3.5423 1.2692 1.15082 7.52558 2.08357 -0.0103165 -11.191 0.699006 4.0235 8.92039 1.54268 -10.8748 -5.36816 2.00998 -0.0 0.0 0.0 -0.0 0.0 0.0 4.34868e-15 1.92072e-14 -8.24056e-14 22.6687 10.4529 44.0007 -26.1233 -23.7548 57.2819 -0.917914 26.1323 3.95359 -6.81919e-10 -6.15695e-10 -7.16022e-11 -1.18077e-09 -1.02127e-09 -1.09041e-10 -6.81918e-10 -6.1569e-10 -7.16058e-11 7.73091 5.47488 0.417314 -6.8192e-10 -6.15695e-10 -7.15937e-11 2.90554 0.965183 0.102902 -6.81915e-10 -6.15694e-10 -7.15988e-11 10.2786 0.731801 0.0259123 -6.81923e-10 -6.15692e-10 -7.15947e-11 2.22167 -0.733487 -0.20892 4.28011e-15 1.9207e-14 -8.24925e-14 -21.879 7.96124 -42.2081 25.6534 -22.576 -55.3737 0.603868 21.5194 -3.17673 5.46889e-10 -1.67616e-09 4.42124e-10 9.53818e-10 -2.87142e-09 7.54252e-10 5.46886e-10 -1.67615e-09 4.42124e-10 -7.73091 5.47488 -0.417314 5.46889e-10 -1.67615e-09 4.42121e-10 -2.90554 0.965183 -0.102902 5.46889e-10 -1.67616e-09 4.42115e-10 -10.2786 0.731801 -0.0259123 5.46899e-10 -1.67615e-09 4.421e-10 -2.22167 -0.733487 0.20892 -2.03217e-16 0.0 -3.88251e-19 -2.85524 -31.7386 -3.08751 -0.745264 55.6885 1.5163 -9.23362 -20.1053 -18.0834 2.03217e-16 0.0 3.88251e-19 4.97474 -30.4692 3.01957 0.678825 51.6842 -1.02222 -1.35811 -23.3486 -3.69449
57.8269 79.8677 -84.3314 1.7815 -3.4989 1.2769 1.14729 7.55413 2.06191 -0.025843 -11.2624 0.689872 4.0776 9.03496 1.53748 -10.9032 -5.5014 1.98676 -0.0 0.0 0.0 -0.0 0.0 0.0 1.31616e-14 2.76957e-14 -7.13788e-14 22.7108 10.5217 43.9508 -26.124 -23.7571 57.2858 -0.918425 26.1389 3.95476 -7.13573e-10 -1.08685e-09 -2.00301e-10 -1.23747e-09 -1.8346e-09 -3.30538e-10 -7.13573e-10 -1.08684e-09 -2.00304e-10 7.73091 5.47488 0.417314 -7.13574e-10 -1.08685e-09 -2.00291e-10 2.90554 0.965183 0.102902 -7.13568e-10 -1.08685e-09 -2.00296e-10 10.2786 0.731801 0.0259123 -7.13576e-10 -1.08685e-09 -2.00292e-10 2.22167 -0.733487 -0.20892 1.31029e-14 2.76958e-14 -7.14347e-14 -21.8594 8.05632 -42.14 25.6511 -22.5705 -55.3648 0.60625 21.5597 -3.18326 3.27005e-10 -1.86244e-09 5.40289e-10 5.75306e-10 -3.20536e-09 9.27465e-10 3.27002e-10 -1.86243e-09 5.4029e-10 -7.73091 5.47488 -0.417314 3.27005e-10 -1.86243e-09 5.40281e-10 -2.90554 0.965183 -0.102902 3.27005e-10 -1.86244e-09 5.40279e-10 -10.2786 0.731801 -0.0259123 3.27015e-10 -1.86244e-09 5.40261e-10 -2.22167 -0.733487 0.20892 -2.03217e-16 0.0 -3.88251e-19 -2.90487 -31.6857 -3.14383 -0.743672 55.6541 1.5144 -9.22598 -20.0985 -18.0734 2.03217e-16 0.0 3.88251e-19 4.9303 -30.4368 2.97141 0.67788 51.6572 -1.02036 -1.38191 -23.2836 -3.74915
57.8467 79.8769 -84.3262 1.8461 -3.4647 1.2464 1.15135 7.56943 2.04817 -0.0374542 -11.2984 0.683955 4.10808 9.0854 1.53425 -10.9089 -5.56279 1.97395 -0.0 0.0 0.0 -0.0 0.0 0.0 1.91611e-14 3.10096e-14 -6.49529e-14 22.7358 10.5619 43.9112 -26.1263 -23.7631 57.2957 -0.918615 26.1414 3.95519 -7.28427e-10 -1.31073e-09 -2.59215e-10 -1.26398e-09 -2.22104e-09 -4.31937e-10 -7.28427e-10 -1.31072e-09 -2.59218e-10 7.73091 5.47488 0.417314 -7.28428e-10 -1.31072e-09 -2.59206e-10 2.90554 0.965183 0.102902 -7.28422e-10 -1.31073e-09 -2.5921e-10 10.2786 0.731801 0.0259123 -7.28429e-10 -1.31073e-09 -2.59206e-10 2.22167 -0.733487 -0.20892 1.91062e-14 3.101e-14 -6.50026e-14 -21.834 8.10589 -42.1081 25.6448 -22.5554 -55.34 0.606214 21.5595 -3.18322 1.83731e-10 -1.97743e-09 6.00323e-10 3.28583e-10 -3.412e-09 1.03358e-09 1.83728e-10 -1.97741e-09 6.00327e-10 -7.73091 5.47488 -0.417314 1.83732e-10 -1.97742e-09 6.00314e-10 -2.90554 0.965183 -0.102902 1.8373e-10 -1.97743e-09 6.00314e-10 -10.2786 0.731801 -0.0259123 1.83741e-10 -1.97743e-09 6.00295e-10 -2.22167 -0.733487 0.20892 -2.03217e-16 0.0 -3.88251e-19 -2.93105 -31.6546 -3.18051 -0.742522 55.6293 1.513 -9.21986 -20.0935 -18.0653 2.03217e-16 0.0 3.88251e-19 4.90336 -30.4187 2.9312 0.678022 51.6382 -1.02015 -1.39568 -23.2441 -3.7821
57.8524 79.8862 -84.3199 1.8503 -3.432 1.2057 1.16681 7.56294 2.0432 -0.0433497 -11.2798 0.681914 4.10587 9.03895 1.53378 -10.8869 -5.5129 1.97597 -0.0 0.0 0.0 -0.0 0.0 0.0 2.34359e-14 2.51266e-14 -6.90963e-14 22.7406 10.5584 43.8885 -26.1315 -23.777 57.318 -0.918343 26.1379 3.95457 -7.39309e-10 -1.11377e-09 -1.93312e-10 -1.28151e-09 -1.87933e-09 -3.17974e-10 -7.39309e-10 -1.11376e-09 -1.93316e-10 7.73091 5.47488 0.417314 -7.39311e-10 -1.11376e-09 -1.93303e-10 2.90554 0.965183 0.102902 -7.39304e-10 -1.11377e-09 -1.93307e-10 10.2786 0.731801 0.0259123 -7.39311e-10 -1.11377e-09 -1.93303e-10 2.22167 -0.733487 -0.20892 2.33748e-14 2.51277e-14 -6.91841e-14 -21.8008 8.08683 -42.1292 25.6323 -22.5256 -55.2913 0.602008 21.4894 -3.17182 1.3228e-10 -2.0148e-09 6.18056e-10 2.39907e-10 -3.47982e-09 1.06521e-09 1.32277e-10 -2.01479e-09 6.18061e-10 -7.73091 5.47488 -0.417314 1.32281e-10 -2.01479e-09 6.18047e-10 -2.90554 0.965183 -0.102902 1.32278e-10 -2.0148e-09 6.18047e-10 -10.2786 0.731801 -0.0259123 1.3229e-10 -2.01479e-09 6.18031e-10 -2.22167 -0.733487 0.20892 -2.03217e-16 0.0 -3.88251e-19 -2.92517 -31.6567 -3.18943 -0.74206 55.6194 1.51239 -9.21593 -20.0946 -18.058 2.03217e-16 0.0 3.88251e-19 4.89889 -30.4222 2.89876 0.680314 51.6317 -1.02306 -1.39523 -23.242 -3.78445
57.853 79.8854 -84.3367 1.8308 -3.4041 1.2578 1.19237 7.54281 2.04385 -0.0476515 -11.2276 0.682165 4.0882 8.93341 1.5336 -10.8565 -5.39526 1.98337 -0.0 0.0 0.0 -0.0 0.0 0.0 2.75876e-14 1.36155e-14 -7.47865e-14 22.732 10.5284 43.8739 -26.1393 -23.7976 57.3512 -0.917941 26.1327 3.95366 -7.41312e-10 -6.80552e-10 -5.9499e-11 -1.28251e-09 -1.12928e-09 -8.70064e-11 -7.41311e-10 -6.80547e-10 -5.9505e-11 7.73091 5.47488 0.417314 -7.41314e-10 -6.8054e-10 -5.94923e-11 2.90554 0.965183 0.102902 -7.41306e-10 -6.80553e-10 -5.94956e-11 10.2786 0.731801 0.0259123 -7.41313e-10 -6.8055e-10 -5.94913e-11 2.22167 -0.733487 -0.20892 2.75148e-14 1.36175e-14 -7.49418e-14 -21.7602 8.02451 -42.1847 25.615 -22.4842 -55.2237 0.595617 21.382 -3.15436 1.23425e-10 -1.95144e-09 5.96585e-10 2.24218e-10 -3.37133e-09 1.02849e-09 1.23423e-10 -1.95144e-09 5.96593e-10 -7.73091 5.47488 -0.417314 1.23426e-10 -1.95144e-09 5.96578e-10 -2.90554 0.965183 -0.102902 1.23421e-10 -1.95144e-09 5.96578e-10 -10.2786 0.731801 -0.0259123 1.23435e-10 -1.95144e-09 5.96566e-10 -2.22167 -0.733487 0.20892 -2.03217e-16 0.0 -3.88251e-19 -2.8976 -31.6797 -3.18128 -0.742031 55.6187 1.51224 -9.21336 -20.0978 -18.0522 2.03217e-16 0.0 3.88251e-19 4.91013 -30.4392 2.87054 0.684155 51.6345 -1.02809 -1.38779 -23.2635 -3.77146
57.8463 79.8846 -84.3523 1.8008 -3.4191 1.3005 1.22036 7.52212 2.0506 -0.0512814 -11.1693 0.684415 4.06248 8.8141 1.53383 -10.8142 -5.26591 1.99334 -0.0 0.0 0.0 -0.0 0.0 0.0 2.7965e-14 2.84987e-15 -7.53611e-14 22.712 10.4929 43.8593 -26.1465 -23.8166 57.3819 -0.917479 26.1267 3.95261 -7.09251e-10 -2.63126e-10 6.10789e-11 -1.22498e-09 -4.08894e-10 1.2039e-10 -7.09248e-10 -2.63127e-10 6.1071e-11 7.73091 5.47488 0.417314 -7.09253e-10 -2.63116e-10 6.10837e-11 2.90554 0.965183 0.102902 -7.09244e-10 -2.63129e-10 6.10808e-11 10.2786 0.731801 0.0259123 -7.09251e-10 -2.63125e-10 6.10856e-11 2.22167 -0.733487 -0.20892 2.78813e-14 2.85273e-15 -7.55809e-14 -21.7158 7.95176 -42.2505 25.5962 -22.4396 -55.1513 0.589552 21.2789 -3.13765 1.59858e-10 -1.81892e-09 5.42973e-10 2.86232e-10 -3.14054e-09 9.35439e-10 1.59857e-10 -1.81894e-09 5.42984e-10 -7.73091 5.47488 -0.417314 1.59858e-10 -1.81892e-09 5.42968e-10 -2.90554 0.965183 -0.102902 1.59852e-10 -1.81893e-09 5.42968e-10 -10.2786 0.731801 -0.0259123 1.59868e-10 -1.81893e-09 5.4296e-10 -2.22167 -0.733487 0.20892 -2.03217e-16 0.0 -3.88251e-19 -2.86013 -31.7075 -3.16641 -0.742065 55.6194 1.51215 -9.21125 -20.0971 -18.0496 2.03217e-16 0.0 3.88251e-19 4.93083 -30.4596 2.84955 0.687601 51.6391 -1.03271 -1.37762 -23.2921 -3.75175
